<svg xmlns="http://www.w3.org/2000/svg" width="64" height="64" viewBox="0 0 64 64">
  <defs>
    <linearGradient id="gradient" x1="0%" y1="0%" x2="100%" y2="100%">
      <stop offset="0%" stop-color="#3B82F6" />
      <stop offset="100%" stop-color="#9333EA" />
    </linearGradient>
  </defs>
  <rect width="64" height="64" fill="url(#gradient)" rx="12" ry="12"/>
  <g transform="translate(20, 20)">
    <path d="M4 14s-1 2-2 2c-.5 0-1-.5-1-1s.5-1 1-1c.5 0 1 .5 2 .5s1-2 2-2c.5 0 1 .5 1 1s-.5 1-1 1c-.5 0-1-.5-2-.5z" fill="white"/>
    <path d="M20 10s1-2 2-2c.5 0 1 .5 1 1s-.5 1-1 1c-.5 0-1-.5-2-.5s-1 2-2 2c-.5 0-1-.5-1-1s.5-1 1-1c.5 0 1 .5 2 .5z" fill="white"/>
    <path d="M10 20s-1 2-2 2c-.5 0-1-.5-1-1s.5-1 1-1c.5 0 1 .5 2 .5s1-2 2-2c.5 0 1 .5 1 1s-.5 1-1 1c-.5 0-1-.5-2-.5z" fill="white"/>
    <path d="M12 2L4.5 12.2c-.9 1.2-.4 3 1 3.8l.3.2c1.4.8 3.1.3 3.9-1.1L12 8l4.3 6.1c.8 1.4 2.6 1.9 3.9 1.1l.3-.2c1.4-.8 1.9-2.6 1-3.8L12 2z" fill="white"/>
  </g>
</svg>